<svg xmlns="http://www.w3.org/2000/svg" width="161.968" height="34.036" viewBox="0 0 161.968 34.036">
  <g id="Grupo_2" data-name="Grupo 2" transform="translate(-597.032 -547.567)">
    <g id="Grupo_1" data-name="Grupo 1" transform="translate(597.032 547.567)">
      <g id="Grupo_4056" data-name="Grupo 4056">
        <g id="Grupo_1-2" data-name="Grupo 1" transform="translate(45.492 8.482)">
          <g id="Grupo_1694" data-name="Grupo 1694" transform="translate(0 0)">
            <g id="Grupo_243" data-name="Grupo 243">
              <path id="Trazado_271" data-name="Trazado 271" d="M2110.979,101.574l.019,0c2.531.56,5.811,1.613,5.746,5.129a4.366,4.366,0,0,1-1.846,3.718,7.538,7.538,0,0,1-4.569,1.348c-3.146,0-5.495-1.352-6.6-3.609a.287.287,0,0,1,.116-.372l2.544-1.477a.285.285,0,0,1,.39.1l.014.027a3.479,3.479,0,0,0,3.535,2.076c1.875,0,2.8-.625,2.8-1.845,0-1.055-1.382-1.678-3.125-2.1-2.466-.625-5.789-1.612-5.723-5.065a4.431,4.431,0,0,1,1.71-3.651,7.251,7.251,0,0,1,10.127,1.612q.063.086.122.174a.286.286,0,0,1-.1.392l0,0-2.47,1.384a.291.291,0,0,1-.4-.105h0a3.116,3.116,0,0,0-2.965-1.616c-1.348,0-2.4.592-2.4,1.743,0,1.084,1.377,1.642,3.083,2.135" transform="translate(-2103.703 -94.461)" fill="#1f2d52"/>
              <path id="Trazado_272" data-name="Trazado 272" d="M2148.547,104.629a.29.29,0,0,0-.288.291.277.277,0,0,0,.011.079c.639,2.265,2.579,3.511,5.171,3.511a4.9,4.9,0,0,0,4.091-1.834.288.288,0,0,1,.373-.076l2.437,1.423a.288.288,0,0,1,.1.395.173.173,0,0,1-.014.021,8.109,8.109,0,0,1-7.024,3.327,8.89,8.89,0,0,1-6.48-2.434,9.026,9.026,0,0,1-.031-12.368,8.3,8.3,0,0,1,6.249-2.5A7.71,7.71,0,0,1,2159.064,97a8.794,8.794,0,0,1,2.335,6.152,9.1,9.1,0,0,1-.095,1.23.288.288,0,0,1-.285.248Zm8.915-2.895a.29.29,0,0,0,.287-.293.268.268,0,0,0-.009-.07,4.537,4.537,0,0,0-4.626-3.684,4.75,4.75,0,0,0-4.884,3.681.289.289,0,0,0,.2.355.3.3,0,0,0,.073.01Z" transform="translate(-2129.033 -94.455)" fill="#1f2d52"/>
              <path id="Trazado_273" data-name="Trazado 273" d="M2202.474,101.572l.019,0c2.532.56,5.813,1.614,5.747,5.129a4.37,4.37,0,0,1-1.845,3.718,7.538,7.538,0,0,1-4.57,1.348c-3.147,0-5.5-1.352-6.6-3.609a.287.287,0,0,1,.117-.372l2.542-1.477a.283.283,0,0,1,.389.1.169.169,0,0,1,.014.027,3.48,3.48,0,0,0,3.537,2.076c1.875,0,2.8-.625,2.8-1.845,0-1.055-1.381-1.677-3.125-2.1-2.467-.625-5.789-1.612-5.723-5.065a4.433,4.433,0,0,1,1.71-3.651,7.252,7.252,0,0,1,10.128,1.61c.042.058.083.116.123.175a.287.287,0,0,1-.106.393l0,0-2.469,1.384a.291.291,0,0,1-.4-.105h0a3.115,3.115,0,0,0-2.964-1.616c-1.348,0-2.4.592-2.4,1.743,0,1.084,1.377,1.642,3.083,2.136" transform="translate(-2160.568 -94.46)" fill="#1f2d52"/>
              <path id="Trazado_274" data-name="Trazado 274" d="M2250.2,94.892h2.977a.287.287,0,0,1,.287.287v15.872a.287.287,0,0,1-.287.288H2250.2a.287.287,0,0,1-.287-.288v-1.266a.287.287,0,0,0-.5-.2,6.691,6.691,0,0,1-5.259,2.176,7.7,7.7,0,0,1-5.789-2.5,9.079,9.079,0,0,1,0-12.3,7.694,7.694,0,0,1,5.789-2.5,6.75,6.75,0,0,1,5.26,2.156.287.287,0,0,0,.5-.2V95.177a.287.287,0,0,1,.287-.287m-5.482,13.488a5.06,5.06,0,0,0,3.718-1.481,5.209,5.209,0,0,0,1.48-3.779,5.085,5.085,0,0,0-1.48-3.75,5.323,5.323,0,0,0-7.434,0,5.084,5.084,0,0,0-1.48,3.75A5.208,5.208,0,0,0,2241,106.9a5.06,5.06,0,0,0,3.718,1.481" transform="translate(-2185.908 -94.454)" fill="#1f2d52"/>
              <path id="Trazado_275" data-name="Trazado 275" d="M2318.175,101.139v9.909a.287.287,0,0,1-.287.288h-2.977a.287.287,0,0,1-.287-.287v-9.682c0-2.27-1.218-3.585-3.19-3.585-2.2,0-3.586,1.447-3.586,4.342v8.924a.287.287,0,0,1-.287.287h-2.977a.287.287,0,0,1-.287-.287h0v-9.681c0-2.27-1.118-3.585-3.092-3.585-2.138,0-3.65,1.48-3.65,4.342v8.924a.288.288,0,0,1-.288.287h-2.977a.288.288,0,0,1-.288-.287h0V95.176a.288.288,0,0,1,.288-.287h2.977a.288.288,0,0,1,.288.287h0v.838a.285.285,0,0,0,.5.189,5.317,5.317,0,0,1,4.2-1.742,5.009,5.009,0,0,1,4.45,2.246.276.276,0,0,0,.384.073.271.271,0,0,0,.067-.065,5.526,5.526,0,0,1,4.8-2.254c3.717,0,6.217,2.6,6.217,6.679" transform="translate(-2221.974 -94.451)" fill="#1f2d52"/>
              <path id="Trazado_276" data-name="Trazado 276" d="M2370.769,104.634a.289.289,0,0,0-.276.371c.639,2.265,2.58,3.511,5.171,3.511a4.9,4.9,0,0,0,4.09-1.834.288.288,0,0,1,.373-.076l2.437,1.423a.288.288,0,0,1,.1.395l-.014.021a8.11,8.11,0,0,1-7.025,3.327,8.885,8.885,0,0,1-6.479-2.434,9.027,9.027,0,0,1-.034-12.368,8.3,8.3,0,0,1,6.249-2.5,7.709,7.709,0,0,1,5.92,2.533,8.793,8.793,0,0,1,2.335,6.152,9.06,9.06,0,0,1-.094,1.23.289.289,0,0,1-.285.248Zm8.914-2.895a.29.29,0,0,0,.278-.362,4.539,4.539,0,0,0-4.627-3.684,4.75,4.75,0,0,0-4.884,3.681.29.29,0,0,0,.205.355.308.308,0,0,0,.073.01Z" transform="translate(-2267.146 -94.46)" fill="#1f2d52"/>
            </g>
          </g>
        </g>
        <g id="Grupo_9" data-name="Grupo 9" transform="translate(20.761 20.761)">
          <path id="Trazado_5" data-name="Trazado 5" d="M2040.819,139.646a2.454,2.454,0,0,1-1.735-4.188l7.847-7.847a2.454,2.454,0,0,1,3.47,3.47l-7.847,7.847A2.445,2.445,0,0,1,2040.819,139.646Z" transform="translate(-2038.365 -126.892)" fill="#55e5bc"/>
        </g>
        <g id="Grupo_10" data-name="Grupo 10">
          <path id="Trazado_6" data-name="Trazado 6" d="M2000.558,106.078a2.449,2.449,0,0,1-.637-.084l-8.6-2.305a6.673,6.673,0,0,1-4.705-4.705l-2.872-10.719a6.671,6.671,0,0,1,1.722-6.427l7.848-7.848a6.673,6.673,0,0,1,6.427-1.722l10.72,2.872a6.675,6.675,0,0,1,4.705,4.705l2.3,8.6a2.453,2.453,0,1,1-4.74,1.27l-2.305-8.6a1.754,1.754,0,0,0-1.236-1.236l-10.719-2.872a1.752,1.752,0,0,0-1.687.452l-7.848,7.848a1.752,1.752,0,0,0-.452,1.688l2.874,10.719a1.752,1.752,0,0,0,1.236,1.235l8.6,2.305a2.454,2.454,0,0,1-.635,4.824Z" transform="translate(-1983.515 -72.042)" fill="#1f2d52"/>
        </g>
      </g>
    </g>
  </g>
</svg>
